%TF.GenerationSoftware,KiCad,Pcbnew,(6.0.0)*%
%TF.CreationDate,2022-03-29T22:28:20-07:00*%
%TF.ProjectId,probe,70726f62-652e-46b6-9963-61645f706362,rev?*%
%TF.SameCoordinates,Original*%
%TF.FileFunction,Copper,L2,Bot*%
%TF.FilePolarity,Positive*%
%FSLAX46Y46*%
G04 Gerber Fmt 4.6, Leading zero omitted, Abs format (unit mm)*
G04 Created by KiCad (PCBNEW (6.0.0)) date 2022-03-29 22:28:20*
%MOMM*%
%LPD*%
G01*
G04 APERTURE LIST*
%TA.AperFunction,ViaPad*%
%ADD10C,1.200000*%
%TD*%
%TA.AperFunction,Conductor*%
%ADD11C,1.000000*%
%TD*%
G04 APERTURE END LIST*
D10*
%TO.N,GND*%
X130000000Y-109000000D03*
X138000000Y-111000000D03*
X126000000Y-120000000D03*
X137000000Y-119000000D03*
X148000000Y-119000000D03*
X141000000Y-125000000D03*
%TD*%
D11*
%TO.N,GND*%
X132000000Y-111000000D02*
X130000000Y-109000000D01*
X138000000Y-111000000D02*
X132000000Y-111000000D01*
%TD*%
%TA.AperFunction,Conductor*%
%TO.N,GND*%
G36*
X135434121Y-106528002D02*
G01*
X135480614Y-106581658D01*
X135492000Y-106634000D01*
X135492000Y-109991298D01*
X135491998Y-109992068D01*
X135491524Y-110069652D01*
X135493990Y-110078281D01*
X135493991Y-110078286D01*
X135499639Y-110098048D01*
X135503217Y-110114809D01*
X135506130Y-110135152D01*
X135506133Y-110135162D01*
X135507405Y-110144045D01*
X135518021Y-110167395D01*
X135524464Y-110184907D01*
X135531512Y-110209565D01*
X135547274Y-110234548D01*
X135555404Y-110249614D01*
X135567633Y-110276510D01*
X135584374Y-110295939D01*
X135595479Y-110310947D01*
X135609160Y-110332631D01*
X135615888Y-110338573D01*
X135631296Y-110352181D01*
X135643340Y-110364373D01*
X135662619Y-110386747D01*
X135670147Y-110391626D01*
X135670150Y-110391629D01*
X135684139Y-110400696D01*
X135699013Y-110411986D01*
X135718228Y-110428956D01*
X135726354Y-110432771D01*
X135726355Y-110432772D01*
X135732021Y-110435432D01*
X135744966Y-110441510D01*
X135759935Y-110449824D01*
X135784727Y-110465893D01*
X135801650Y-110470954D01*
X135809290Y-110473239D01*
X135826736Y-110479901D01*
X135849948Y-110490799D01*
X135879130Y-110495343D01*
X135895849Y-110499126D01*
X135915536Y-110505014D01*
X135915539Y-110505015D01*
X135924141Y-110507587D01*
X135933116Y-110507642D01*
X135933117Y-110507642D01*
X135939810Y-110507683D01*
X135958556Y-110507797D01*
X135959328Y-110507830D01*
X135960423Y-110508000D01*
X135991298Y-110508000D01*
X135992068Y-110508002D01*
X136065716Y-110508452D01*
X136065717Y-110508452D01*
X136069652Y-110508476D01*
X136070996Y-110508092D01*
X136072341Y-110508000D01*
X149366000Y-110508000D01*
X149434121Y-110528002D01*
X149480614Y-110581658D01*
X149492000Y-110634000D01*
X149492000Y-120616000D01*
X149471998Y-120684121D01*
X149418342Y-120730614D01*
X149366000Y-120742000D01*
X145508702Y-120742000D01*
X145507932Y-120741998D01*
X145507078Y-120741993D01*
X145430348Y-120741524D01*
X145421719Y-120743990D01*
X145421714Y-120743991D01*
X145401952Y-120749639D01*
X145385191Y-120753217D01*
X145364848Y-120756130D01*
X145364838Y-120756133D01*
X145355955Y-120757405D01*
X145332605Y-120768021D01*
X145315093Y-120774464D01*
X145302200Y-120778149D01*
X145290435Y-120781512D01*
X145265452Y-120797274D01*
X145250386Y-120805404D01*
X145223490Y-120817633D01*
X145204061Y-120834374D01*
X145189053Y-120845479D01*
X145167369Y-120859160D01*
X145161427Y-120865888D01*
X145147819Y-120881296D01*
X145135627Y-120893340D01*
X145113253Y-120912619D01*
X145108374Y-120920147D01*
X145108371Y-120920150D01*
X145099304Y-120934139D01*
X145088014Y-120949013D01*
X145071044Y-120968228D01*
X145058490Y-120994966D01*
X145050176Y-121009935D01*
X145034107Y-121034727D01*
X145031535Y-121043327D01*
X145026761Y-121059290D01*
X145020099Y-121076736D01*
X145009201Y-121099948D01*
X145007820Y-121108821D01*
X145004658Y-121129128D01*
X145000874Y-121145849D01*
X144994986Y-121165536D01*
X144994985Y-121165539D01*
X144992413Y-121174141D01*
X144992358Y-121183116D01*
X144992358Y-121183117D01*
X144992203Y-121208546D01*
X144992170Y-121209328D01*
X144992000Y-121210423D01*
X144992000Y-121241298D01*
X144991998Y-121242068D01*
X144991524Y-121319652D01*
X144991908Y-121320996D01*
X144992000Y-121322341D01*
X144992000Y-124741298D01*
X144991998Y-124742068D01*
X144991524Y-124819652D01*
X144993990Y-124828281D01*
X144993991Y-124828286D01*
X144999639Y-124848048D01*
X145003217Y-124864809D01*
X145006130Y-124885152D01*
X145006133Y-124885162D01*
X145007405Y-124894045D01*
X145018021Y-124917395D01*
X145024464Y-124934907D01*
X145031512Y-124959565D01*
X145047274Y-124984548D01*
X145055404Y-124999614D01*
X145067633Y-125026510D01*
X145084374Y-125045939D01*
X145095479Y-125060947D01*
X145109160Y-125082631D01*
X145115888Y-125088573D01*
X145131296Y-125102181D01*
X145143340Y-125114373D01*
X145162619Y-125136747D01*
X145170147Y-125141626D01*
X145170150Y-125141629D01*
X145184139Y-125150696D01*
X145199013Y-125161986D01*
X145218228Y-125178956D01*
X145226354Y-125182771D01*
X145226355Y-125182772D01*
X145232021Y-125185432D01*
X145244966Y-125191510D01*
X145259935Y-125199824D01*
X145284727Y-125215893D01*
X145293327Y-125218465D01*
X145309290Y-125223239D01*
X145326736Y-125229901D01*
X145349948Y-125240799D01*
X145358821Y-125242180D01*
X145367402Y-125244804D01*
X145366655Y-125247246D01*
X145418684Y-125271745D01*
X145456368Y-125331915D01*
X145455540Y-125402907D01*
X145416462Y-125462181D01*
X145351541Y-125490918D01*
X145335066Y-125492000D01*
X140634000Y-125492000D01*
X140565879Y-125471998D01*
X140519386Y-125418342D01*
X140508000Y-125366000D01*
X140508000Y-122008702D01*
X140508002Y-122007932D01*
X140508421Y-121939322D01*
X140508476Y-121930348D01*
X140506010Y-121921719D01*
X140506009Y-121921714D01*
X140500361Y-121901952D01*
X140496783Y-121885191D01*
X140493870Y-121864848D01*
X140493867Y-121864838D01*
X140492595Y-121855955D01*
X140481979Y-121832605D01*
X140475536Y-121815093D01*
X140470954Y-121799063D01*
X140468488Y-121790435D01*
X140452726Y-121765452D01*
X140444596Y-121750386D01*
X140432367Y-121723490D01*
X140415626Y-121704061D01*
X140404521Y-121689053D01*
X140395630Y-121674961D01*
X140390840Y-121667369D01*
X140368703Y-121647818D01*
X140356659Y-121635626D01*
X140343239Y-121620051D01*
X140343237Y-121620050D01*
X140337381Y-121613253D01*
X140329853Y-121608374D01*
X140329850Y-121608371D01*
X140315861Y-121599304D01*
X140300987Y-121588014D01*
X140288502Y-121576988D01*
X140281772Y-121571044D01*
X140273646Y-121567229D01*
X140273645Y-121567228D01*
X140267979Y-121564568D01*
X140255034Y-121558490D01*
X140240065Y-121550176D01*
X140215273Y-121534107D01*
X140190709Y-121526761D01*
X140173264Y-121520099D01*
X140168827Y-121518016D01*
X140150052Y-121509201D01*
X140120870Y-121504657D01*
X140104151Y-121500874D01*
X140084464Y-121494986D01*
X140084461Y-121494985D01*
X140075859Y-121492413D01*
X140066884Y-121492358D01*
X140066883Y-121492358D01*
X140060190Y-121492317D01*
X140041444Y-121492203D01*
X140040672Y-121492170D01*
X140039577Y-121492000D01*
X140008702Y-121492000D01*
X140007932Y-121491998D01*
X139934284Y-121491548D01*
X139934283Y-121491548D01*
X139930348Y-121491524D01*
X139929004Y-121491908D01*
X139927659Y-121492000D01*
X136008702Y-121492000D01*
X136007932Y-121491998D01*
X136007078Y-121491993D01*
X135930348Y-121491524D01*
X135921719Y-121493990D01*
X135921714Y-121493991D01*
X135901952Y-121499639D01*
X135885191Y-121503217D01*
X135864848Y-121506130D01*
X135864838Y-121506133D01*
X135855955Y-121507405D01*
X135832605Y-121518021D01*
X135815093Y-121524464D01*
X135807057Y-121526761D01*
X135790435Y-121531512D01*
X135765452Y-121547274D01*
X135750386Y-121555404D01*
X135723490Y-121567633D01*
X135704061Y-121584374D01*
X135689053Y-121595479D01*
X135667369Y-121609160D01*
X135661427Y-121615888D01*
X135647819Y-121631296D01*
X135635627Y-121643340D01*
X135613253Y-121662619D01*
X135608374Y-121670147D01*
X135608371Y-121670150D01*
X135599304Y-121684139D01*
X135588014Y-121699013D01*
X135571044Y-121718228D01*
X135567229Y-121726354D01*
X135567228Y-121726355D01*
X135564737Y-121731661D01*
X135558490Y-121744966D01*
X135550176Y-121759935D01*
X135534107Y-121784727D01*
X135531535Y-121793327D01*
X135526761Y-121809290D01*
X135520099Y-121826736D01*
X135509201Y-121849948D01*
X135504658Y-121879128D01*
X135500874Y-121895849D01*
X135494986Y-121915536D01*
X135494985Y-121915539D01*
X135492413Y-121924141D01*
X135492358Y-121933116D01*
X135492358Y-121933117D01*
X135492203Y-121958546D01*
X135492170Y-121959328D01*
X135492000Y-121960423D01*
X135492000Y-121991298D01*
X135491998Y-121992068D01*
X135491524Y-122069652D01*
X135491908Y-122070996D01*
X135492000Y-122072341D01*
X135492000Y-125366000D01*
X135471998Y-125434121D01*
X135418342Y-125480614D01*
X135366000Y-125492000D01*
X124634000Y-125492000D01*
X124565879Y-125471998D01*
X124519386Y-125418342D01*
X124508000Y-125366000D01*
X124508000Y-122008702D01*
X124508002Y-122007932D01*
X124508421Y-121939322D01*
X124508476Y-121930348D01*
X124506010Y-121921719D01*
X124506009Y-121921714D01*
X124500361Y-121901952D01*
X124496783Y-121885191D01*
X124493870Y-121864848D01*
X124493867Y-121864838D01*
X124492595Y-121855955D01*
X124481979Y-121832605D01*
X124475536Y-121815093D01*
X124470954Y-121799063D01*
X124468488Y-121790435D01*
X124452726Y-121765452D01*
X124444596Y-121750386D01*
X124432367Y-121723490D01*
X124415626Y-121704061D01*
X124404521Y-121689053D01*
X124395630Y-121674961D01*
X124390840Y-121667369D01*
X124368703Y-121647818D01*
X124356659Y-121635626D01*
X124343239Y-121620051D01*
X124343237Y-121620050D01*
X124337381Y-121613253D01*
X124329853Y-121608374D01*
X124329850Y-121608371D01*
X124315861Y-121599304D01*
X124300987Y-121588014D01*
X124288502Y-121576988D01*
X124281772Y-121571044D01*
X124273646Y-121567229D01*
X124273645Y-121567228D01*
X124267979Y-121564568D01*
X124255034Y-121558490D01*
X124240065Y-121550176D01*
X124215273Y-121534107D01*
X124190709Y-121526761D01*
X124173264Y-121520099D01*
X124168827Y-121518016D01*
X124150052Y-121509201D01*
X124120870Y-121504657D01*
X124104151Y-121500874D01*
X124084464Y-121494986D01*
X124084461Y-121494985D01*
X124075859Y-121492413D01*
X124066884Y-121492358D01*
X124066883Y-121492358D01*
X124060190Y-121492317D01*
X124041444Y-121492203D01*
X124040672Y-121492170D01*
X124039577Y-121492000D01*
X124008702Y-121492000D01*
X124007932Y-121491998D01*
X123934284Y-121491548D01*
X123934283Y-121491548D01*
X123930348Y-121491524D01*
X123929004Y-121491908D01*
X123927659Y-121492000D01*
X116634000Y-121492000D01*
X116565879Y-121471998D01*
X116519386Y-121418342D01*
X116508000Y-121366000D01*
X116508000Y-117434000D01*
X116528002Y-117365879D01*
X116581658Y-117319386D01*
X116634000Y-117308000D01*
X127007450Y-117308000D01*
X127075571Y-117328002D01*
X127122064Y-117381658D01*
X127128599Y-117399374D01*
X127129046Y-117400939D01*
X127129047Y-117400942D01*
X127131512Y-117409565D01*
X127147274Y-117434548D01*
X127155404Y-117449614D01*
X127167633Y-117476510D01*
X127184374Y-117495939D01*
X127195479Y-117510947D01*
X127209160Y-117532631D01*
X127215888Y-117538573D01*
X127231296Y-117552181D01*
X127243340Y-117564373D01*
X127262619Y-117586747D01*
X127270147Y-117591626D01*
X127270150Y-117591629D01*
X127284139Y-117600696D01*
X127299013Y-117611986D01*
X127318228Y-117628956D01*
X127326354Y-117632771D01*
X127326355Y-117632772D01*
X127332021Y-117635432D01*
X127344966Y-117641510D01*
X127359935Y-117649824D01*
X127384727Y-117665893D01*
X127401650Y-117670954D01*
X127409290Y-117673239D01*
X127426736Y-117679901D01*
X127449948Y-117690799D01*
X127479130Y-117695343D01*
X127495849Y-117699126D01*
X127515536Y-117705014D01*
X127515539Y-117705015D01*
X127524141Y-117707587D01*
X127533116Y-117707642D01*
X127533117Y-117707642D01*
X127539810Y-117707683D01*
X127558556Y-117707797D01*
X127559328Y-117707830D01*
X127560423Y-117708000D01*
X127591298Y-117708000D01*
X127592068Y-117708002D01*
X127665716Y-117708452D01*
X127665717Y-117708452D01*
X127669652Y-117708476D01*
X127670996Y-117708092D01*
X127672341Y-117708000D01*
X132391298Y-117708000D01*
X132392069Y-117708002D01*
X132469652Y-117708476D01*
X132478281Y-117706010D01*
X132478286Y-117706009D01*
X132498048Y-117700361D01*
X132514809Y-117696783D01*
X132535152Y-117693870D01*
X132535162Y-117693867D01*
X132544045Y-117692595D01*
X132567395Y-117681979D01*
X132584907Y-117675536D01*
X132600937Y-117670954D01*
X132609565Y-117668488D01*
X132634548Y-117652726D01*
X132649614Y-117644596D01*
X132676510Y-117632367D01*
X132695939Y-117615626D01*
X132710947Y-117604521D01*
X132725039Y-117595630D01*
X132732631Y-117590840D01*
X132752182Y-117568703D01*
X132764374Y-117556659D01*
X132779949Y-117543239D01*
X132779950Y-117543237D01*
X132786747Y-117537381D01*
X132791626Y-117529853D01*
X132791629Y-117529850D01*
X132800696Y-117515861D01*
X132811986Y-117500987D01*
X132823012Y-117488502D01*
X132828956Y-117481772D01*
X132841510Y-117455034D01*
X132849824Y-117440065D01*
X132865893Y-117415273D01*
X132868464Y-117406677D01*
X132868467Y-117406670D01*
X132871091Y-117397895D01*
X132909774Y-117338362D01*
X132974502Y-117309194D01*
X132991807Y-117308000D01*
X135591298Y-117308000D01*
X135592069Y-117308002D01*
X135669652Y-117308476D01*
X135678281Y-117306010D01*
X135678286Y-117306009D01*
X135698048Y-117300361D01*
X135714809Y-117296783D01*
X135735152Y-117293870D01*
X135735162Y-117293867D01*
X135744045Y-117292595D01*
X135767395Y-117281979D01*
X135784907Y-117275536D01*
X135800937Y-117270954D01*
X135809565Y-117268488D01*
X135834548Y-117252726D01*
X135849614Y-117244596D01*
X135876510Y-117232367D01*
X135895939Y-117215626D01*
X135910947Y-117204521D01*
X135925039Y-117195630D01*
X135932631Y-117190840D01*
X135952182Y-117168703D01*
X135964374Y-117156659D01*
X135979949Y-117143239D01*
X135979950Y-117143237D01*
X135986747Y-117137381D01*
X135991626Y-117129853D01*
X135991629Y-117129850D01*
X136000696Y-117115861D01*
X136011986Y-117100987D01*
X136023012Y-117088502D01*
X136028956Y-117081772D01*
X136041510Y-117055034D01*
X136049824Y-117040065D01*
X136065893Y-117015273D01*
X136073239Y-116990709D01*
X136079901Y-116973264D01*
X136086983Y-116958179D01*
X136090799Y-116950052D01*
X136095343Y-116920870D01*
X136099126Y-116904151D01*
X136105014Y-116884464D01*
X136105015Y-116884461D01*
X136107587Y-116875859D01*
X136107797Y-116841444D01*
X136107830Y-116840672D01*
X136108000Y-116839577D01*
X136108000Y-116808702D01*
X136108002Y-116807932D01*
X136108452Y-116734284D01*
X136108452Y-116734283D01*
X136108476Y-116730348D01*
X136108092Y-116729004D01*
X136108000Y-116727659D01*
X136108000Y-115208702D01*
X136108002Y-115207932D01*
X136108421Y-115139322D01*
X136108476Y-115130348D01*
X136106010Y-115121719D01*
X136106009Y-115121714D01*
X136100361Y-115101952D01*
X136096783Y-115085191D01*
X136093870Y-115064848D01*
X136093867Y-115064838D01*
X136092595Y-115055955D01*
X136081979Y-115032605D01*
X136075536Y-115015093D01*
X136070954Y-114999063D01*
X136068488Y-114990435D01*
X136052726Y-114965452D01*
X136044596Y-114950386D01*
X136032367Y-114923490D01*
X136015626Y-114904061D01*
X136004521Y-114889053D01*
X135995630Y-114874961D01*
X135990840Y-114867369D01*
X135968703Y-114847818D01*
X135956659Y-114835626D01*
X135943239Y-114820051D01*
X135943237Y-114820050D01*
X135937381Y-114813253D01*
X135929853Y-114808374D01*
X135929850Y-114808371D01*
X135915861Y-114799304D01*
X135900987Y-114788014D01*
X135888502Y-114776988D01*
X135881772Y-114771044D01*
X135873646Y-114767229D01*
X135873645Y-114767228D01*
X135867979Y-114764568D01*
X135855034Y-114758490D01*
X135840065Y-114750176D01*
X135815273Y-114734107D01*
X135790709Y-114726761D01*
X135773264Y-114720099D01*
X135750052Y-114709201D01*
X135720870Y-114704657D01*
X135704151Y-114700874D01*
X135684464Y-114694986D01*
X135684461Y-114694985D01*
X135675859Y-114692413D01*
X135666884Y-114692358D01*
X135666883Y-114692358D01*
X135660190Y-114692317D01*
X135641444Y-114692203D01*
X135640672Y-114692170D01*
X135639577Y-114692000D01*
X135608702Y-114692000D01*
X135607932Y-114691998D01*
X135534284Y-114691548D01*
X135534283Y-114691548D01*
X135530348Y-114691524D01*
X135529004Y-114691908D01*
X135527659Y-114692000D01*
X132992550Y-114692000D01*
X132924429Y-114671998D01*
X132877936Y-114618342D01*
X132871401Y-114600626D01*
X132870954Y-114599061D01*
X132870953Y-114599058D01*
X132868488Y-114590435D01*
X132852726Y-114565452D01*
X132844596Y-114550386D01*
X132832367Y-114523490D01*
X132815626Y-114504061D01*
X132804521Y-114489053D01*
X132795630Y-114474961D01*
X132790840Y-114467369D01*
X132768703Y-114447818D01*
X132756659Y-114435626D01*
X132743239Y-114420051D01*
X132743237Y-114420050D01*
X132737381Y-114413253D01*
X132729853Y-114408374D01*
X132729850Y-114408371D01*
X132715861Y-114399304D01*
X132700987Y-114388014D01*
X132688502Y-114376988D01*
X132681772Y-114371044D01*
X132673646Y-114367229D01*
X132673645Y-114367228D01*
X132667979Y-114364568D01*
X132655034Y-114358490D01*
X132640065Y-114350176D01*
X132615273Y-114334107D01*
X132590709Y-114326761D01*
X132573264Y-114320099D01*
X132568827Y-114318016D01*
X132550052Y-114309201D01*
X132520870Y-114304657D01*
X132504151Y-114300874D01*
X132484464Y-114294986D01*
X132484461Y-114294985D01*
X132475859Y-114292413D01*
X132466884Y-114292358D01*
X132466883Y-114292358D01*
X132460190Y-114292317D01*
X132441444Y-114292203D01*
X132440672Y-114292170D01*
X132439577Y-114292000D01*
X132408702Y-114292000D01*
X132407932Y-114291998D01*
X132334284Y-114291548D01*
X132334283Y-114291548D01*
X132330348Y-114291524D01*
X132329004Y-114291908D01*
X132327659Y-114292000D01*
X127608702Y-114292000D01*
X127607932Y-114291998D01*
X127607078Y-114291993D01*
X127530348Y-114291524D01*
X127521719Y-114293990D01*
X127521714Y-114293991D01*
X127501952Y-114299639D01*
X127485191Y-114303217D01*
X127464848Y-114306130D01*
X127464838Y-114306133D01*
X127455955Y-114307405D01*
X127432605Y-114318021D01*
X127415093Y-114324464D01*
X127407057Y-114326761D01*
X127390435Y-114331512D01*
X127365452Y-114347274D01*
X127350386Y-114355404D01*
X127323490Y-114367633D01*
X127304061Y-114384374D01*
X127289053Y-114395479D01*
X127267369Y-114409160D01*
X127261427Y-114415888D01*
X127247819Y-114431296D01*
X127235627Y-114443340D01*
X127213253Y-114462619D01*
X127208374Y-114470147D01*
X127208371Y-114470150D01*
X127199304Y-114484139D01*
X127188014Y-114499013D01*
X127171044Y-114518228D01*
X127158490Y-114544966D01*
X127150176Y-114559935D01*
X127134107Y-114584727D01*
X127131536Y-114593323D01*
X127131533Y-114593330D01*
X127128909Y-114602105D01*
X127090226Y-114661638D01*
X127025498Y-114690806D01*
X127008193Y-114692000D01*
X116634000Y-114692000D01*
X116565879Y-114671998D01*
X116519386Y-114618342D01*
X116508000Y-114566000D01*
X116508000Y-110634000D01*
X116528002Y-110565879D01*
X116581658Y-110519386D01*
X116634000Y-110508000D01*
X123991298Y-110508000D01*
X123992069Y-110508002D01*
X124069652Y-110508476D01*
X124078281Y-110506010D01*
X124078286Y-110506009D01*
X124098048Y-110500361D01*
X124114809Y-110496783D01*
X124135152Y-110493870D01*
X124135162Y-110493867D01*
X124144045Y-110492595D01*
X124167395Y-110481979D01*
X124184907Y-110475536D01*
X124200937Y-110470954D01*
X124209565Y-110468488D01*
X124234548Y-110452726D01*
X124249614Y-110444596D01*
X124276510Y-110432367D01*
X124295939Y-110415626D01*
X124310947Y-110404521D01*
X124325039Y-110395630D01*
X124332631Y-110390840D01*
X124352182Y-110368703D01*
X124364374Y-110356659D01*
X124379949Y-110343239D01*
X124379950Y-110343237D01*
X124386747Y-110337381D01*
X124391626Y-110329853D01*
X124391629Y-110329850D01*
X124400696Y-110315861D01*
X124411986Y-110300987D01*
X124423012Y-110288502D01*
X124428956Y-110281772D01*
X124441510Y-110255034D01*
X124449824Y-110240065D01*
X124465893Y-110215273D01*
X124473239Y-110190709D01*
X124479901Y-110173264D01*
X124486983Y-110158179D01*
X124490799Y-110150052D01*
X124495343Y-110120870D01*
X124499126Y-110104151D01*
X124505014Y-110084464D01*
X124505015Y-110084461D01*
X124507587Y-110075859D01*
X124507797Y-110041444D01*
X124507830Y-110040672D01*
X124508000Y-110039577D01*
X124508000Y-110008702D01*
X124508002Y-110007932D01*
X124508452Y-109934284D01*
X124508452Y-109934283D01*
X124508476Y-109930348D01*
X124508092Y-109929004D01*
X124508000Y-109927659D01*
X124508000Y-106634000D01*
X124528002Y-106565879D01*
X124581658Y-106519386D01*
X124634000Y-106508000D01*
X135366000Y-106508000D01*
X135434121Y-106528002D01*
G37*
%TD.AperFunction*%
%TD*%
M02*
