%TF.GenerationSoftware,KiCad,Pcbnew,(6.0.0)*%
%TF.CreationDate,2022-03-29T22:28:20-07:00*%
%TF.ProjectId,probe,70726f62-652e-46b6-9963-61645f706362,rev?*%
%TF.SameCoordinates,Original*%
%TF.FileFunction,Profile,NP*%
%FSLAX46Y46*%
G04 Gerber Fmt 4.6, Leading zero omitted, Abs format (unit mm)*
G04 Created by KiCad (PCBNEW (6.0.0)) date 2022-03-29 22:28:20*
%MOMM*%
%LPD*%
G01*
G04 APERTURE LIST*
%TA.AperFunction,Profile*%
%ADD10C,0.100000*%
%TD*%
G04 APERTURE END LIST*
D10*
X150000000Y-126000000D02*
X150000000Y-124750000D01*
X140000000Y-122000000D02*
X136000000Y-122000000D01*
X140000000Y-126000000D02*
X140000000Y-122000000D01*
X150000000Y-126000000D02*
X140000000Y-126000000D01*
X116000000Y-115200000D02*
X116000000Y-110000000D01*
X116000000Y-116800000D02*
X116000000Y-122000000D01*
X120000000Y-110000000D02*
X116000000Y-110000000D01*
X120000000Y-122000000D02*
X116000000Y-122000000D01*
X124000000Y-122000000D02*
X120000000Y-122000000D01*
X124000000Y-126000000D02*
X124000000Y-122000000D01*
X136000000Y-126000000D02*
X124000000Y-126000000D01*
X136000000Y-122000000D02*
X136000000Y-126000000D01*
X150000000Y-110000000D02*
X150000000Y-121250000D01*
X136000000Y-110000000D02*
X150000000Y-110000000D01*
X136000000Y-106000000D02*
X136000000Y-110000000D01*
X124000000Y-106000000D02*
X136000000Y-106000000D01*
X124000000Y-110000000D02*
X120000000Y-110000000D01*
X124000000Y-106000000D02*
X124000000Y-110000000D01*
X127600000Y-116800000D02*
X116000000Y-116800000D01*
X127600000Y-117200000D02*
X127600000Y-116800000D01*
X132400000Y-117200000D02*
X127600000Y-117200000D01*
X132400000Y-116800000D02*
X132400000Y-117200000D01*
X135600000Y-116800000D02*
X132400000Y-116800000D01*
X135600000Y-115200000D02*
X135600000Y-116800000D01*
X132400000Y-115200000D02*
X135600000Y-115200000D01*
X132400000Y-114800000D02*
X132400000Y-115200000D01*
X127600000Y-114800000D02*
X132400000Y-114800000D01*
X127600000Y-115200000D02*
X127600000Y-114800000D01*
X116000000Y-115200000D02*
X127600000Y-115200000D01*
%TO.C,J1*%
X145500000Y-124750000D02*
X150000000Y-124750000D01*
X145500000Y-121250000D02*
X145500000Y-124750000D01*
X150000000Y-121250000D02*
X145500000Y-121250000D01*
%TD*%
M02*
