%TF.GenerationSoftware,KiCad,Pcbnew,(6.0.0)*%
%TF.CreationDate,2022-03-29T22:28:20-07:00*%
%TF.ProjectId,probe,70726f62-652e-46b6-9963-61645f706362,rev?*%
%TF.SameCoordinates,Original*%
%TF.FileFunction,Copper,L1,Top*%
%TF.FilePolarity,Positive*%
%FSLAX46Y46*%
G04 Gerber Fmt 4.6, Leading zero omitted, Abs format (unit mm)*
G04 Created by KiCad (PCBNEW (6.0.0)) date 2022-03-29 22:28:20*
%MOMM*%
%LPD*%
G01*
G04 APERTURE LIST*
G04 Aperture macros list*
%AMRoundRect*
0 Rectangle with rounded corners*
0 $1 Rounding radius*
0 $2 $3 $4 $5 $6 $7 $8 $9 X,Y pos of 4 corners*
0 Add a 4 corners polygon primitive as box body*
4,1,4,$2,$3,$4,$5,$6,$7,$8,$9,$2,$3,0*
0 Add four circle primitives for the rounded corners*
1,1,$1+$1,$2,$3*
1,1,$1+$1,$4,$5*
1,1,$1+$1,$6,$7*
1,1,$1+$1,$8,$9*
0 Add four rect primitives between the rounded corners*
20,1,$1+$1,$2,$3,$4,$5,0*
20,1,$1+$1,$4,$5,$6,$7,0*
20,1,$1+$1,$6,$7,$8,$9,0*
20,1,$1+$1,$8,$9,$2,$3,0*%
%AMFreePoly0*
4,1,7,1.500000,-0.740000,-1.500000,-0.740000,-1.500000,0.190000,-6.000000,0.190000,-6.000000,0.740000,1.500000,0.740000,1.500000,-0.740000,1.500000,-0.740000,$1*%
%AMFreePoly1*
4,1,7,1.500000,-0.740000,-6.000000,-0.740000,-6.000000,-0.190000,-1.500000,-0.190000,-1.500000,0.740000,1.500000,0.740000,1.500000,-0.740000,1.500000,-0.740000,$1*%
G04 Aperture macros list end*
%TA.AperFunction,SMDPad,CuDef*%
%ADD10R,2.000000X2.000000*%
%TD*%
%TA.AperFunction,SMDPad,CuDef*%
%ADD11R,2.100000X1.100000*%
%TD*%
%TA.AperFunction,SMDPad,CuDef*%
%ADD12FreePoly0,180.000000*%
%TD*%
%TA.AperFunction,SMDPad,CuDef*%
%ADD13FreePoly1,180.000000*%
%TD*%
%TA.AperFunction,SMDPad,CuDef*%
%ADD14R,1.075000X1.400000*%
%TD*%
%TA.AperFunction,SMDPad,CuDef*%
%ADD15R,1.400000X1.075000*%
%TD*%
%TA.AperFunction,SMDPad,CuDef*%
%ADD16RoundRect,0.250000X-0.475000X0.250000X-0.475000X-0.250000X0.475000X-0.250000X0.475000X0.250000X0*%
%TD*%
%TA.AperFunction,SMDPad,CuDef*%
%ADD17RoundRect,0.250000X-0.250000X-0.475000X0.250000X-0.475000X0.250000X0.475000X-0.250000X0.475000X0*%
%TD*%
%TA.AperFunction,ViaPad*%
%ADD18C,1.200000*%
%TD*%
%TA.AperFunction,Conductor*%
%ADD19C,1.000000*%
%TD*%
G04 APERTURE END LIST*
D10*
%TO.P,TP2,1,1*%
%TO.N,GND*%
X134000000Y-119000000D03*
%TD*%
%TO.P,TP1,1,1*%
%TO.N,Net-(C1-Pad2)*%
X126000000Y-113000000D03*
%TD*%
D11*
%TO.P,J1,1,In*%
%TO.N,Net-(C1-Pad1)*%
X143550000Y-123000000D03*
D12*
%TO.P,J1,2,Ext*%
%TO.N,GND*%
X144000000Y-124560000D03*
D13*
X144000000Y-121440000D03*
%TD*%
D14*
%TO.P,C2,1*%
%TO.N,Net-(C1-Pad1)*%
X141162500Y-118000000D03*
%TO.P,C2,2*%
%TO.N,Net-(C1-Pad2)*%
X144837500Y-118000000D03*
%TD*%
D15*
%TO.P,C5,1*%
%TO.N,GND*%
X148000000Y-111162500D03*
%TO.P,C5,2*%
%TO.N,Net-(C1-Pad2)*%
X148000000Y-114837500D03*
%TD*%
D16*
%TO.P,C3,1*%
%TO.N,GND*%
X144000000Y-111000000D03*
%TO.P,C3,2*%
%TO.N,Net-(C1-Pad2)*%
X144000000Y-112900000D03*
%TD*%
D17*
%TO.P,C1,1*%
%TO.N,Net-(C1-Pad1)*%
X142050000Y-115000000D03*
%TO.P,C1,2*%
%TO.N,Net-(C1-Pad2)*%
X143950000Y-115000000D03*
%TD*%
D16*
%TO.P,C4,1*%
%TO.N,GND*%
X142000000Y-111000000D03*
%TO.P,C4,2*%
%TO.N,Net-(C1-Pad2)*%
X142000000Y-112900000D03*
%TD*%
D18*
%TO.N,GND*%
X130000000Y-109000000D03*
X138000000Y-111000000D03*
X126000000Y-120000000D03*
X137000000Y-119000000D03*
X148000000Y-119000000D03*
X141000000Y-125000000D03*
%TD*%
D19*
%TO.N,GND*%
X142000000Y-111000000D02*
X138000000Y-111000000D01*
X134000000Y-119000000D02*
X127000000Y-119000000D01*
X127000000Y-119000000D02*
X126000000Y-120000000D01*
X134000000Y-119000000D02*
X137000000Y-119000000D01*
X146250020Y-120749980D02*
X148000000Y-119000000D01*
X144690020Y-120749980D02*
X146250020Y-120749980D01*
X144000000Y-121440000D02*
X144690020Y-120749980D01*
X141440000Y-124560000D02*
X141000000Y-125000000D01*
X144000000Y-124560000D02*
X141440000Y-124560000D01*
X148000000Y-111162500D02*
X144162500Y-111162500D01*
X144162500Y-111162500D02*
X144000000Y-111000000D01*
%TO.N,Net-(C1-Pad2)*%
X144112500Y-114837500D02*
X143950000Y-115000000D01*
X148000000Y-114837500D02*
X144112500Y-114837500D01*
%TO.N,Net-(C1-Pad1)*%
X141670978Y-123000000D02*
X143300000Y-123000000D01*
X141000000Y-118162500D02*
X141000000Y-122329022D01*
X141162500Y-118000000D02*
X141000000Y-118162500D01*
X141000000Y-122329022D02*
X141670978Y-123000000D01*
X142050000Y-117112500D02*
X141162500Y-118000000D01*
X142050000Y-115000000D02*
X142050000Y-117112500D01*
%TO.N,Net-(C1-Pad2)*%
X143950000Y-117112500D02*
X144837500Y-118000000D01*
X143950000Y-115000000D02*
X143950000Y-117112500D01*
X144000000Y-114950000D02*
X143950000Y-115000000D01*
X144000000Y-112900000D02*
X144000000Y-114950000D01*
X143900000Y-113000000D02*
X144000000Y-112900000D01*
X126000000Y-113000000D02*
X143900000Y-113000000D01*
%TO.N,GND*%
X142000000Y-111000000D02*
X144000000Y-111000000D01*
%TD*%
%TA.AperFunction,Conductor*%
%TO.N,GND*%
G36*
X141069761Y-114028502D02*
G01*
X141116254Y-114082158D01*
X141126358Y-114152432D01*
X141113230Y-114188654D01*
X141114820Y-114189395D01*
X141111725Y-114196032D01*
X141107885Y-114202262D01*
X141052203Y-114370139D01*
X141051503Y-114376975D01*
X141051502Y-114376978D01*
X141049736Y-114394214D01*
X141041500Y-114474600D01*
X141041500Y-116642576D01*
X141021498Y-116710697D01*
X141004595Y-116731671D01*
X140981671Y-116754595D01*
X140919359Y-116788621D01*
X140892576Y-116791500D01*
X140576866Y-116791500D01*
X140514684Y-116798255D01*
X140378295Y-116849385D01*
X140261739Y-116936739D01*
X140174385Y-117053295D01*
X140123255Y-117189684D01*
X140116500Y-117251866D01*
X140116500Y-117643745D01*
X140100915Y-117704446D01*
X140098961Y-117708000D01*
X140077878Y-117746351D01*
X140068567Y-117763287D01*
X140066955Y-117768369D01*
X140064438Y-117773063D01*
X140037238Y-117862031D01*
X140036918Y-117863059D01*
X140008765Y-117951806D01*
X140008171Y-117957102D01*
X140006613Y-117962198D01*
X140005990Y-117968334D01*
X139997218Y-118054687D01*
X139997089Y-118055893D01*
X139991500Y-118105727D01*
X139991500Y-118109254D01*
X139991445Y-118110239D01*
X139990998Y-118115919D01*
X139986626Y-118158962D01*
X139987206Y-118165093D01*
X139990941Y-118204609D01*
X139991500Y-118216467D01*
X139991500Y-121366000D01*
X139971498Y-121434121D01*
X139917842Y-121480614D01*
X139865500Y-121492000D01*
X136008702Y-121492000D01*
X136007932Y-121491998D01*
X136007078Y-121491993D01*
X135930348Y-121491524D01*
X135921719Y-121493990D01*
X135921714Y-121493991D01*
X135901952Y-121499639D01*
X135885191Y-121503217D01*
X135864848Y-121506130D01*
X135864838Y-121506133D01*
X135855955Y-121507405D01*
X135832605Y-121518021D01*
X135815093Y-121524464D01*
X135807057Y-121526761D01*
X135790435Y-121531512D01*
X135765452Y-121547274D01*
X135750386Y-121555404D01*
X135723490Y-121567633D01*
X135704061Y-121584374D01*
X135689053Y-121595479D01*
X135667369Y-121609160D01*
X135661427Y-121615888D01*
X135647819Y-121631296D01*
X135635627Y-121643340D01*
X135613253Y-121662619D01*
X135608374Y-121670147D01*
X135608371Y-121670150D01*
X135599304Y-121684139D01*
X135588014Y-121699013D01*
X135571044Y-121718228D01*
X135567229Y-121726354D01*
X135567228Y-121726355D01*
X135564737Y-121731661D01*
X135558490Y-121744966D01*
X135550176Y-121759935D01*
X135534107Y-121784727D01*
X135531535Y-121793327D01*
X135526761Y-121809290D01*
X135520099Y-121826736D01*
X135509201Y-121849948D01*
X135504658Y-121879128D01*
X135500874Y-121895849D01*
X135494986Y-121915536D01*
X135494985Y-121915539D01*
X135492413Y-121924141D01*
X135492358Y-121933116D01*
X135492358Y-121933117D01*
X135492203Y-121958546D01*
X135492170Y-121959328D01*
X135492000Y-121960423D01*
X135492000Y-121991298D01*
X135491998Y-121992068D01*
X135491524Y-122069652D01*
X135491908Y-122070996D01*
X135492000Y-122072341D01*
X135492000Y-125366000D01*
X135471998Y-125434121D01*
X135418342Y-125480614D01*
X135366000Y-125492000D01*
X124634000Y-125492000D01*
X124565879Y-125471998D01*
X124519386Y-125418342D01*
X124508000Y-125366000D01*
X124508000Y-122008702D01*
X124508002Y-122007932D01*
X124508304Y-121958546D01*
X124508476Y-121930348D01*
X124506010Y-121921719D01*
X124506009Y-121921714D01*
X124500361Y-121901952D01*
X124496783Y-121885191D01*
X124493870Y-121864848D01*
X124493867Y-121864838D01*
X124492595Y-121855955D01*
X124481979Y-121832605D01*
X124475536Y-121815093D01*
X124470954Y-121799063D01*
X124468488Y-121790435D01*
X124452726Y-121765452D01*
X124444596Y-121750386D01*
X124432367Y-121723490D01*
X124415626Y-121704061D01*
X124404521Y-121689053D01*
X124400459Y-121682614D01*
X124390840Y-121667369D01*
X124368703Y-121647818D01*
X124356659Y-121635626D01*
X124343239Y-121620051D01*
X124343237Y-121620050D01*
X124337381Y-121613253D01*
X124329853Y-121608374D01*
X124329850Y-121608371D01*
X124315861Y-121599304D01*
X124300987Y-121588014D01*
X124288502Y-121576988D01*
X124281772Y-121571044D01*
X124273646Y-121567229D01*
X124273645Y-121567228D01*
X124267979Y-121564568D01*
X124255034Y-121558490D01*
X124240065Y-121550176D01*
X124215273Y-121534107D01*
X124190709Y-121526761D01*
X124173264Y-121520099D01*
X124168827Y-121518016D01*
X124150052Y-121509201D01*
X124120870Y-121504657D01*
X124104151Y-121500874D01*
X124084464Y-121494986D01*
X124084461Y-121494985D01*
X124075859Y-121492413D01*
X124066884Y-121492358D01*
X124066883Y-121492358D01*
X124060190Y-121492317D01*
X124041444Y-121492203D01*
X124040672Y-121492170D01*
X124039577Y-121492000D01*
X124008702Y-121492000D01*
X124007932Y-121491998D01*
X123934284Y-121491548D01*
X123934283Y-121491548D01*
X123930348Y-121491524D01*
X123929004Y-121491908D01*
X123927659Y-121492000D01*
X116634000Y-121492000D01*
X116565879Y-121471998D01*
X116519386Y-121418342D01*
X116508000Y-121366000D01*
X116508000Y-120044669D01*
X132492001Y-120044669D01*
X132492371Y-120051490D01*
X132497895Y-120102352D01*
X132501521Y-120117604D01*
X132546676Y-120238054D01*
X132555214Y-120253649D01*
X132631715Y-120355724D01*
X132644276Y-120368285D01*
X132746351Y-120444786D01*
X132761946Y-120453324D01*
X132882394Y-120498478D01*
X132897649Y-120502105D01*
X132948514Y-120507631D01*
X132955328Y-120508000D01*
X133727885Y-120508000D01*
X133743124Y-120503525D01*
X133744329Y-120502135D01*
X133746000Y-120494452D01*
X133746000Y-120489884D01*
X134254000Y-120489884D01*
X134258475Y-120505123D01*
X134259865Y-120506328D01*
X134267548Y-120507999D01*
X135044669Y-120507999D01*
X135051490Y-120507629D01*
X135102352Y-120502105D01*
X135117604Y-120498479D01*
X135238054Y-120453324D01*
X135253649Y-120444786D01*
X135355724Y-120368285D01*
X135368285Y-120355724D01*
X135444786Y-120253649D01*
X135453324Y-120238054D01*
X135498478Y-120117606D01*
X135502105Y-120102351D01*
X135507631Y-120051486D01*
X135508000Y-120044672D01*
X135508000Y-119272115D01*
X135503525Y-119256876D01*
X135502135Y-119255671D01*
X135494452Y-119254000D01*
X134272115Y-119254000D01*
X134256876Y-119258475D01*
X134255671Y-119259865D01*
X134254000Y-119267548D01*
X134254000Y-120489884D01*
X133746000Y-120489884D01*
X133746000Y-119272115D01*
X133741525Y-119256876D01*
X133740135Y-119255671D01*
X133732452Y-119254000D01*
X132510116Y-119254000D01*
X132494877Y-119258475D01*
X132493672Y-119259865D01*
X132492001Y-119267548D01*
X132492001Y-120044669D01*
X116508000Y-120044669D01*
X116508000Y-117434000D01*
X116528002Y-117365879D01*
X116581658Y-117319386D01*
X116634000Y-117308000D01*
X127007450Y-117308000D01*
X127075571Y-117328002D01*
X127122064Y-117381658D01*
X127128599Y-117399374D01*
X127129046Y-117400939D01*
X127129047Y-117400942D01*
X127131512Y-117409565D01*
X127147274Y-117434548D01*
X127155404Y-117449614D01*
X127167633Y-117476510D01*
X127184374Y-117495939D01*
X127195479Y-117510947D01*
X127209160Y-117532631D01*
X127215888Y-117538573D01*
X127231296Y-117552181D01*
X127243340Y-117564373D01*
X127262619Y-117586747D01*
X127270147Y-117591626D01*
X127270150Y-117591629D01*
X127284139Y-117600696D01*
X127299013Y-117611986D01*
X127318228Y-117628956D01*
X127326354Y-117632771D01*
X127326355Y-117632772D01*
X127332021Y-117635432D01*
X127344966Y-117641510D01*
X127359935Y-117649824D01*
X127384727Y-117665893D01*
X127393327Y-117668465D01*
X127409290Y-117673239D01*
X127426736Y-117679901D01*
X127449948Y-117690799D01*
X127479130Y-117695343D01*
X127495849Y-117699126D01*
X127515536Y-117705014D01*
X127515539Y-117705015D01*
X127524141Y-117707587D01*
X127533116Y-117707642D01*
X127533117Y-117707642D01*
X127539810Y-117707683D01*
X127558556Y-117707797D01*
X127559328Y-117707830D01*
X127560423Y-117708000D01*
X127591298Y-117708000D01*
X127592068Y-117708002D01*
X127665716Y-117708452D01*
X127665717Y-117708452D01*
X127669652Y-117708476D01*
X127670996Y-117708092D01*
X127672341Y-117708000D01*
X132385101Y-117708000D01*
X132453222Y-117728002D01*
X132499715Y-117781658D01*
X132509819Y-117851932D01*
X132503082Y-117878231D01*
X132501523Y-117882391D01*
X132497895Y-117897649D01*
X132492369Y-117948514D01*
X132492000Y-117955328D01*
X132492000Y-118727885D01*
X132496475Y-118743124D01*
X132497865Y-118744329D01*
X132505548Y-118746000D01*
X135489884Y-118746000D01*
X135505123Y-118741525D01*
X135506328Y-118740135D01*
X135507999Y-118732452D01*
X135507999Y-117955331D01*
X135507629Y-117948510D01*
X135502105Y-117897648D01*
X135498479Y-117882396D01*
X135453324Y-117761946D01*
X135444786Y-117746351D01*
X135368285Y-117644276D01*
X135355724Y-117631715D01*
X135253646Y-117555212D01*
X135234117Y-117544520D01*
X135183971Y-117494261D01*
X135168957Y-117424870D01*
X135193843Y-117358378D01*
X135250726Y-117315895D01*
X135294626Y-117308000D01*
X135591298Y-117308000D01*
X135592069Y-117308002D01*
X135669652Y-117308476D01*
X135678281Y-117306010D01*
X135678286Y-117306009D01*
X135698048Y-117300361D01*
X135714809Y-117296783D01*
X135735152Y-117293870D01*
X135735162Y-117293867D01*
X135744045Y-117292595D01*
X135767395Y-117281979D01*
X135784907Y-117275536D01*
X135800937Y-117270954D01*
X135809565Y-117268488D01*
X135834548Y-117252726D01*
X135849614Y-117244596D01*
X135876510Y-117232367D01*
X135895939Y-117215626D01*
X135910947Y-117204521D01*
X135925039Y-117195630D01*
X135932631Y-117190840D01*
X135952182Y-117168703D01*
X135964374Y-117156659D01*
X135979949Y-117143239D01*
X135979950Y-117143237D01*
X135986747Y-117137381D01*
X135991626Y-117129853D01*
X135991629Y-117129850D01*
X136000696Y-117115861D01*
X136011986Y-117100987D01*
X136023012Y-117088502D01*
X136028956Y-117081772D01*
X136041510Y-117055034D01*
X136049824Y-117040065D01*
X136065893Y-117015273D01*
X136073239Y-116990709D01*
X136079901Y-116973264D01*
X136086983Y-116958179D01*
X136090799Y-116950052D01*
X136095343Y-116920870D01*
X136099126Y-116904151D01*
X136105014Y-116884464D01*
X136105015Y-116884461D01*
X136107587Y-116875859D01*
X136107797Y-116841444D01*
X136107830Y-116840672D01*
X136108000Y-116839577D01*
X136108000Y-116808702D01*
X136108002Y-116807932D01*
X136108452Y-116734284D01*
X136108452Y-116734283D01*
X136108476Y-116730348D01*
X136108092Y-116729004D01*
X136108000Y-116727659D01*
X136108000Y-115208702D01*
X136108002Y-115207932D01*
X136108421Y-115139322D01*
X136108476Y-115130348D01*
X136106010Y-115121719D01*
X136106009Y-115121714D01*
X136100361Y-115101952D01*
X136096783Y-115085191D01*
X136093870Y-115064848D01*
X136093867Y-115064838D01*
X136092595Y-115055955D01*
X136081979Y-115032605D01*
X136075536Y-115015093D01*
X136070954Y-114999063D01*
X136068488Y-114990435D01*
X136052726Y-114965452D01*
X136044596Y-114950386D01*
X136032367Y-114923490D01*
X136015626Y-114904061D01*
X136004521Y-114889053D01*
X135995630Y-114874961D01*
X135990840Y-114867369D01*
X135968703Y-114847818D01*
X135956659Y-114835626D01*
X135943239Y-114820051D01*
X135943237Y-114820050D01*
X135937381Y-114813253D01*
X135929853Y-114808374D01*
X135929850Y-114808371D01*
X135915861Y-114799304D01*
X135900987Y-114788014D01*
X135888502Y-114776988D01*
X135881772Y-114771044D01*
X135873646Y-114767229D01*
X135873645Y-114767228D01*
X135867979Y-114764568D01*
X135855034Y-114758490D01*
X135840065Y-114750176D01*
X135815273Y-114734107D01*
X135790709Y-114726761D01*
X135773264Y-114720099D01*
X135750052Y-114709201D01*
X135720870Y-114704657D01*
X135704151Y-114700874D01*
X135684464Y-114694986D01*
X135684461Y-114694985D01*
X135675859Y-114692413D01*
X135666884Y-114692358D01*
X135666883Y-114692358D01*
X135660190Y-114692317D01*
X135641444Y-114692203D01*
X135640672Y-114692170D01*
X135639577Y-114692000D01*
X135608702Y-114692000D01*
X135607932Y-114691998D01*
X135534284Y-114691548D01*
X135534283Y-114691548D01*
X135530348Y-114691524D01*
X135529004Y-114691908D01*
X135527659Y-114692000D01*
X132992550Y-114692000D01*
X132924429Y-114671998D01*
X132877936Y-114618342D01*
X132871401Y-114600626D01*
X132870954Y-114599061D01*
X132870953Y-114599058D01*
X132868488Y-114590435D01*
X132852726Y-114565452D01*
X132844596Y-114550386D01*
X132832367Y-114523490D01*
X132815626Y-114504061D01*
X132804521Y-114489053D01*
X132795630Y-114474961D01*
X132790840Y-114467369D01*
X132768703Y-114447818D01*
X132756659Y-114435626D01*
X132743239Y-114420051D01*
X132743237Y-114420050D01*
X132737381Y-114413253D01*
X132729853Y-114408374D01*
X132729850Y-114408371D01*
X132715861Y-114399304D01*
X132700987Y-114388014D01*
X132688502Y-114376988D01*
X132681772Y-114371044D01*
X132673646Y-114367229D01*
X132673645Y-114367228D01*
X132665195Y-114363261D01*
X132655034Y-114358490D01*
X132640065Y-114350176D01*
X132615273Y-114334107D01*
X132590709Y-114326761D01*
X132573264Y-114320099D01*
X132550052Y-114309201D01*
X132520870Y-114304657D01*
X132504151Y-114300874D01*
X132484464Y-114294986D01*
X132484461Y-114294985D01*
X132475859Y-114292413D01*
X132466884Y-114292358D01*
X132466883Y-114292358D01*
X132460190Y-114292317D01*
X132441444Y-114292203D01*
X132440672Y-114292170D01*
X132439577Y-114292000D01*
X132408702Y-114292000D01*
X132407932Y-114291998D01*
X132334284Y-114291548D01*
X132334283Y-114291548D01*
X132330348Y-114291524D01*
X132329004Y-114291908D01*
X132327659Y-114292000D01*
X127615433Y-114292000D01*
X127547312Y-114271998D01*
X127500819Y-114218342D01*
X127490715Y-114148068D01*
X127497451Y-114121770D01*
X127498972Y-114117714D01*
X127498973Y-114117711D01*
X127501745Y-114110316D01*
X127502372Y-114104547D01*
X127537126Y-114043709D01*
X127600081Y-114010887D01*
X127624493Y-114008500D01*
X141001640Y-114008500D01*
X141069761Y-114028502D01*
G37*
%TD.AperFunction*%
%TA.AperFunction,Conductor*%
G36*
X140716512Y-123472223D02*
G01*
X140723095Y-123478352D01*
X140914127Y-123669384D01*
X140923229Y-123679527D01*
X140946946Y-123709025D01*
X140951674Y-123712992D01*
X140985399Y-123741291D01*
X140989047Y-123744472D01*
X140990859Y-123746115D01*
X140993053Y-123748309D01*
X141026327Y-123775642D01*
X141027125Y-123776304D01*
X141098452Y-123836154D01*
X141103122Y-123838722D01*
X141107239Y-123842103D01*
X141165123Y-123873140D01*
X141189064Y-123885977D01*
X141190223Y-123886606D01*
X141266359Y-123928462D01*
X141266367Y-123928465D01*
X141271765Y-123931433D01*
X141276847Y-123933045D01*
X141281541Y-123935562D01*
X141370509Y-123962762D01*
X141371537Y-123963082D01*
X141460284Y-123991235D01*
X141465580Y-123991829D01*
X141470676Y-123993387D01*
X141563235Y-124002790D01*
X141564371Y-124002911D01*
X141597986Y-124006681D01*
X141610708Y-124008108D01*
X141610712Y-124008108D01*
X141614205Y-124008500D01*
X141617732Y-124008500D01*
X141618717Y-124008555D01*
X141624397Y-124009002D01*
X141653803Y-124011989D01*
X141661315Y-124012752D01*
X141661317Y-124012752D01*
X141667440Y-124013374D01*
X141713086Y-124009059D01*
X141724945Y-124008500D01*
X141860776Y-124008500D01*
X141928897Y-124028502D01*
X141975390Y-124082158D01*
X141986776Y-124134500D01*
X141986776Y-124287885D01*
X141991251Y-124303124D01*
X141992641Y-124304329D01*
X142000324Y-124306000D01*
X144128000Y-124306000D01*
X144196121Y-124326002D01*
X144242614Y-124379658D01*
X144254000Y-124432000D01*
X144254000Y-124688000D01*
X144233998Y-124756121D01*
X144180342Y-124802614D01*
X144128000Y-124814000D01*
X142004891Y-124814000D01*
X141989652Y-124818475D01*
X141988447Y-124819865D01*
X141986776Y-124827548D01*
X141986776Y-125297743D01*
X141986937Y-125302248D01*
X141990854Y-125357010D01*
X141975763Y-125426384D01*
X141925561Y-125476587D01*
X141865175Y-125492000D01*
X140634000Y-125492000D01*
X140565879Y-125471998D01*
X140519386Y-125418342D01*
X140508000Y-125366000D01*
X140508000Y-123567447D01*
X140528002Y-123499326D01*
X140581658Y-123452833D01*
X140651932Y-123442729D01*
X140716512Y-123472223D01*
G37*
%TD.AperFunction*%
%TA.AperFunction,Conductor*%
G36*
X135434121Y-106528002D02*
G01*
X135480614Y-106581658D01*
X135492000Y-106634000D01*
X135492000Y-109991298D01*
X135491998Y-109992068D01*
X135491524Y-110069652D01*
X135493990Y-110078281D01*
X135493991Y-110078286D01*
X135499639Y-110098048D01*
X135503217Y-110114809D01*
X135506130Y-110135152D01*
X135506133Y-110135162D01*
X135507405Y-110144045D01*
X135518021Y-110167395D01*
X135524464Y-110184907D01*
X135531512Y-110209565D01*
X135547274Y-110234548D01*
X135555404Y-110249614D01*
X135567633Y-110276510D01*
X135584374Y-110295939D01*
X135595479Y-110310947D01*
X135609160Y-110332631D01*
X135615888Y-110338573D01*
X135631296Y-110352181D01*
X135643340Y-110364373D01*
X135662619Y-110386747D01*
X135670147Y-110391626D01*
X135670150Y-110391629D01*
X135684139Y-110400696D01*
X135699013Y-110411986D01*
X135718228Y-110428956D01*
X135726354Y-110432771D01*
X135726355Y-110432772D01*
X135732021Y-110435432D01*
X135744966Y-110441510D01*
X135759935Y-110449824D01*
X135784727Y-110465893D01*
X135801650Y-110470954D01*
X135809290Y-110473239D01*
X135826736Y-110479901D01*
X135849948Y-110490799D01*
X135879130Y-110495343D01*
X135895849Y-110499126D01*
X135915536Y-110505014D01*
X135915539Y-110505015D01*
X135924141Y-110507587D01*
X135933116Y-110507642D01*
X135933117Y-110507642D01*
X135939810Y-110507683D01*
X135958556Y-110507797D01*
X135959328Y-110507830D01*
X135960423Y-110508000D01*
X135991298Y-110508000D01*
X135992068Y-110508002D01*
X136065716Y-110508452D01*
X136065717Y-110508452D01*
X136069652Y-110508476D01*
X136070996Y-110508092D01*
X136072341Y-110508000D01*
X140647065Y-110508000D01*
X140715186Y-110528002D01*
X140761679Y-110581658D01*
X140772409Y-110646842D01*
X140767328Y-110696438D01*
X140767000Y-110702855D01*
X140767000Y-110727885D01*
X140771475Y-110743124D01*
X140772865Y-110744329D01*
X140780548Y-110746000D01*
X145214884Y-110746000D01*
X145230123Y-110741525D01*
X145231328Y-110740135D01*
X145232999Y-110732452D01*
X145232999Y-110702905D01*
X145232662Y-110696386D01*
X145227538Y-110647003D01*
X145240403Y-110577182D01*
X145288974Y-110525400D01*
X145352865Y-110508000D01*
X146666000Y-110508000D01*
X146734121Y-110528002D01*
X146780614Y-110581658D01*
X146792000Y-110634000D01*
X146792000Y-110890385D01*
X146796475Y-110905624D01*
X146797865Y-110906829D01*
X146805548Y-110908500D01*
X149189884Y-110908500D01*
X149205123Y-110904025D01*
X149206328Y-110902635D01*
X149207999Y-110894952D01*
X149207999Y-110634000D01*
X149228001Y-110565879D01*
X149281657Y-110519386D01*
X149333999Y-110508000D01*
X149366000Y-110508000D01*
X149434121Y-110528002D01*
X149480614Y-110581658D01*
X149492000Y-110634000D01*
X149492000Y-120060776D01*
X149471998Y-120128897D01*
X149418342Y-120175390D01*
X149366000Y-120186776D01*
X144272115Y-120186776D01*
X144256876Y-120191251D01*
X144255671Y-120192641D01*
X144254000Y-120200324D01*
X144254000Y-121568000D01*
X144233998Y-121636121D01*
X144180342Y-121682614D01*
X144128000Y-121694000D01*
X143872000Y-121694000D01*
X143803879Y-121673998D01*
X143757386Y-121620342D01*
X143746000Y-121568000D01*
X143746000Y-120204891D01*
X143741525Y-120189652D01*
X143740135Y-120188447D01*
X143732452Y-120186776D01*
X142502257Y-120186776D01*
X142497750Y-120186937D01*
X142433700Y-120191518D01*
X142420478Y-120193904D01*
X142295445Y-120230616D01*
X142279219Y-120238026D01*
X142202621Y-120287253D01*
X142134500Y-120307255D01*
X142066379Y-120287253D01*
X142019886Y-120233597D01*
X142008500Y-120181255D01*
X142008500Y-119167329D01*
X142028502Y-119099208D01*
X142050407Y-119075668D01*
X142049731Y-119074992D01*
X142056081Y-119068642D01*
X142063261Y-119063261D01*
X142150615Y-118946705D01*
X142201745Y-118810316D01*
X142208500Y-118748134D01*
X142208500Y-118432425D01*
X142228502Y-118364304D01*
X142245405Y-118343330D01*
X142719384Y-117869351D01*
X142729527Y-117860249D01*
X142754218Y-117840397D01*
X142759025Y-117836532D01*
X142791315Y-117798050D01*
X142794467Y-117794438D01*
X142796123Y-117792612D01*
X142798310Y-117790425D01*
X142802378Y-117785473D01*
X142825576Y-117757232D01*
X142826418Y-117756217D01*
X142834669Y-117746384D01*
X142886154Y-117685026D01*
X142888723Y-117680353D01*
X142892103Y-117676238D01*
X142895015Y-117670808D01*
X142895281Y-117670410D01*
X142949795Y-117624927D01*
X143020246Y-117616137D01*
X143084264Y-117646831D01*
X143099621Y-117664805D01*
X143100103Y-117664420D01*
X143100578Y-117665015D01*
X143104095Y-117669837D01*
X143105934Y-117673296D01*
X143164755Y-117745418D01*
X143165446Y-117746274D01*
X143196738Y-117785473D01*
X143199242Y-117787977D01*
X143199884Y-117788695D01*
X143203585Y-117793028D01*
X143230935Y-117826562D01*
X143235682Y-117830489D01*
X143235684Y-117830491D01*
X143266262Y-117855787D01*
X143275042Y-117863777D01*
X143754595Y-118343330D01*
X143788621Y-118405642D01*
X143791500Y-118432425D01*
X143791500Y-118748134D01*
X143798255Y-118810316D01*
X143849385Y-118946705D01*
X143936739Y-119063261D01*
X144053295Y-119150615D01*
X144189684Y-119201745D01*
X144251866Y-119208500D01*
X145423134Y-119208500D01*
X145485316Y-119201745D01*
X145621705Y-119150615D01*
X145738261Y-119063261D01*
X145825615Y-118946705D01*
X145876745Y-118810316D01*
X145883500Y-118748134D01*
X145883500Y-117251866D01*
X145876745Y-117189684D01*
X145825615Y-117053295D01*
X145738261Y-116936739D01*
X145621705Y-116849385D01*
X145485316Y-116798255D01*
X145423134Y-116791500D01*
X145107424Y-116791500D01*
X145039303Y-116771498D01*
X145018329Y-116754595D01*
X144995405Y-116731671D01*
X144961379Y-116669359D01*
X144958500Y-116642576D01*
X144958500Y-115972000D01*
X144978502Y-115903879D01*
X145032158Y-115857386D01*
X145084500Y-115846000D01*
X147084830Y-115846000D01*
X147129060Y-115854018D01*
X147189684Y-115876745D01*
X147251866Y-115883500D01*
X148748134Y-115883500D01*
X148810316Y-115876745D01*
X148946705Y-115825615D01*
X149063261Y-115738261D01*
X149150615Y-115621705D01*
X149201745Y-115485316D01*
X149208500Y-115423134D01*
X149208500Y-114251866D01*
X149201745Y-114189684D01*
X149150615Y-114053295D01*
X149063261Y-113936739D01*
X148946705Y-113849385D01*
X148810316Y-113798255D01*
X148748134Y-113791500D01*
X147251866Y-113791500D01*
X147189684Y-113798255D01*
X147129060Y-113820982D01*
X147084830Y-113829000D01*
X145170839Y-113829000D01*
X145102718Y-113808998D01*
X145056225Y-113755342D01*
X145046121Y-113685068D01*
X145071394Y-113626219D01*
X145074305Y-113623303D01*
X145167115Y-113472738D01*
X145222797Y-113304861D01*
X145233500Y-113200400D01*
X145233500Y-112599600D01*
X145222526Y-112493834D01*
X145166550Y-112326054D01*
X145073478Y-112175652D01*
X144948303Y-112050695D01*
X144943765Y-112047898D01*
X144903176Y-111990647D01*
X144899946Y-111919724D01*
X144935572Y-111858313D01*
X144944068Y-111850938D01*
X144954207Y-111842902D01*
X145052270Y-111744669D01*
X146792001Y-111744669D01*
X146792371Y-111751490D01*
X146797895Y-111802352D01*
X146801521Y-111817604D01*
X146846676Y-111938054D01*
X146855214Y-111953649D01*
X146931715Y-112055724D01*
X146944276Y-112068285D01*
X147046351Y-112144786D01*
X147061946Y-112153324D01*
X147182394Y-112198478D01*
X147197649Y-112202105D01*
X147248514Y-112207631D01*
X147255328Y-112208000D01*
X147727885Y-112208000D01*
X147743124Y-112203525D01*
X147744329Y-112202135D01*
X147746000Y-112194452D01*
X147746000Y-112189884D01*
X148254000Y-112189884D01*
X148258475Y-112205123D01*
X148259865Y-112206328D01*
X148267548Y-112207999D01*
X148744669Y-112207999D01*
X148751490Y-112207629D01*
X148802352Y-112202105D01*
X148817604Y-112198479D01*
X148938054Y-112153324D01*
X148953649Y-112144786D01*
X149055724Y-112068285D01*
X149068285Y-112055724D01*
X149144786Y-111953649D01*
X149153324Y-111938054D01*
X149198478Y-111817606D01*
X149202105Y-111802351D01*
X149207631Y-111751486D01*
X149208000Y-111744672D01*
X149208000Y-111434615D01*
X149203525Y-111419376D01*
X149202135Y-111418171D01*
X149194452Y-111416500D01*
X148272115Y-111416500D01*
X148256876Y-111420975D01*
X148255671Y-111422365D01*
X148254000Y-111430048D01*
X148254000Y-112189884D01*
X147746000Y-112189884D01*
X147746000Y-111434615D01*
X147741525Y-111419376D01*
X147740135Y-111418171D01*
X147732452Y-111416500D01*
X146810116Y-111416500D01*
X146794877Y-111420975D01*
X146793672Y-111422365D01*
X146792001Y-111430048D01*
X146792001Y-111744669D01*
X145052270Y-111744669D01*
X145068739Y-111728171D01*
X145077751Y-111716760D01*
X145162816Y-111578757D01*
X145168963Y-111565576D01*
X145220138Y-111411290D01*
X145223005Y-111397914D01*
X145232672Y-111303562D01*
X145233000Y-111297146D01*
X145233000Y-111272115D01*
X145228525Y-111256876D01*
X145227135Y-111255671D01*
X145219452Y-111254000D01*
X140785116Y-111254000D01*
X140769877Y-111258475D01*
X140768672Y-111259865D01*
X140767001Y-111267548D01*
X140767001Y-111297095D01*
X140767338Y-111303614D01*
X140777257Y-111399206D01*
X140780149Y-111412600D01*
X140831588Y-111566784D01*
X140837761Y-111579962D01*
X140923063Y-111717807D01*
X140932099Y-111729208D01*
X140979300Y-111776327D01*
X141013379Y-111838610D01*
X141008376Y-111909430D01*
X140965879Y-111966303D01*
X140899380Y-111991171D01*
X140890282Y-111991500D01*
X127624493Y-111991500D01*
X127556372Y-111971498D01*
X127509879Y-111917842D01*
X127502457Y-111896237D01*
X127501745Y-111889684D01*
X127498972Y-111882285D01*
X127453767Y-111761703D01*
X127450615Y-111753295D01*
X127363261Y-111636739D01*
X127246705Y-111549385D01*
X127110316Y-111498255D01*
X127048134Y-111491500D01*
X124951866Y-111491500D01*
X124889684Y-111498255D01*
X124753295Y-111549385D01*
X124636739Y-111636739D01*
X124549385Y-111753295D01*
X124498255Y-111889684D01*
X124491500Y-111951866D01*
X124491500Y-114048134D01*
X124498255Y-114110316D01*
X124549385Y-114246705D01*
X124636739Y-114363261D01*
X124643919Y-114368642D01*
X124741978Y-114442133D01*
X124753295Y-114450615D01*
X124761700Y-114453766D01*
X124764831Y-114455480D01*
X124814977Y-114505738D01*
X124829991Y-114575129D01*
X124805106Y-114641622D01*
X124748222Y-114684105D01*
X124704322Y-114692000D01*
X116634000Y-114692000D01*
X116565879Y-114671998D01*
X116519386Y-114618342D01*
X116508000Y-114566000D01*
X116508000Y-110634000D01*
X116528002Y-110565879D01*
X116581658Y-110519386D01*
X116634000Y-110508000D01*
X123991298Y-110508000D01*
X123992069Y-110508002D01*
X124069652Y-110508476D01*
X124078281Y-110506010D01*
X124078286Y-110506009D01*
X124098048Y-110500361D01*
X124114809Y-110496783D01*
X124135152Y-110493870D01*
X124135162Y-110493867D01*
X124144045Y-110492595D01*
X124167395Y-110481979D01*
X124184907Y-110475536D01*
X124200937Y-110470954D01*
X124209565Y-110468488D01*
X124234548Y-110452726D01*
X124249614Y-110444596D01*
X124276510Y-110432367D01*
X124295939Y-110415626D01*
X124310947Y-110404521D01*
X124325039Y-110395630D01*
X124332631Y-110390840D01*
X124352182Y-110368703D01*
X124364374Y-110356659D01*
X124379949Y-110343239D01*
X124379950Y-110343237D01*
X124386747Y-110337381D01*
X124391626Y-110329853D01*
X124391629Y-110329850D01*
X124400696Y-110315861D01*
X124411986Y-110300987D01*
X124423012Y-110288502D01*
X124428956Y-110281772D01*
X124441510Y-110255034D01*
X124449824Y-110240065D01*
X124465893Y-110215273D01*
X124473239Y-110190709D01*
X124479901Y-110173264D01*
X124486983Y-110158179D01*
X124490799Y-110150052D01*
X124495343Y-110120870D01*
X124499126Y-110104151D01*
X124505014Y-110084464D01*
X124505015Y-110084461D01*
X124507587Y-110075859D01*
X124507797Y-110041444D01*
X124507830Y-110040672D01*
X124508000Y-110039577D01*
X124508000Y-110008702D01*
X124508002Y-110007932D01*
X124508452Y-109934284D01*
X124508452Y-109934283D01*
X124508476Y-109930348D01*
X124508092Y-109929004D01*
X124508000Y-109927659D01*
X124508000Y-106634000D01*
X124528002Y-106565879D01*
X124581658Y-106519386D01*
X124634000Y-106508000D01*
X135366000Y-106508000D01*
X135434121Y-106528002D01*
G37*
%TD.AperFunction*%
%TD*%
M02*
